<?xml version="1.0" standalone="no"?>
<!DOCTYPE svg PUBLIC "-//W3C//DTD SVG 20010904//EN"
 "http://www.w3.org/TR/2001/REC-SVG-20010904/DTD/svg10.dtd">
<svg version="1.0" xmlns="http://www.w3.org/2000/svg"
 width="260.000000pt" height="260.000000pt" viewBox="0 0 260.000000 260.000000"
 preserveAspectRatio="xMidYMid meet">
<metadata>
Created by potrace 1.11, written by Peter Selinger 2001-2013
</metadata>
<g transform="translate(0.000000,260.000000) scale(0.100000,-0.100000)"
fill="#000000" stroke="none">
<path d="M1309 2523 c-5 -15 -17 -53 -26 -85 -19 -69 -24 -71 -141 -66 -44 2
-78 0 -76 -4 2 -3 35 -28 72 -54 37 -26 70 -50 75 -54 4 -3 -2 -38 -14 -76
-12 -38 -20 -69 -18 -70 2 0 -2 -8 -10 -18 -29 -35 0 -26 66 20 37 27 70 52
71 56 5 12 19 10 34 -4 14 -14 116 -90 134 -101 6 -3 -4 36 -22 89 l-32 95 65
47 c36 26 73 52 82 59 13 10 -3 12 -85 13 l-101 0 -27 90 c-16 50 -30 90 -32
90 -3 0 -9 -12 -15 -27z"/>
<path d="M793 2219 l4 -61 -44 -19 c-25 -10 -51 -19 -59 -19 -8 0 -14 -5 -14
-12 0 -6 3 -9 6 -5 3 3 23 -1 44 -8 21 -7 40 -11 43 -9 12 12 29 -31 32 -78 2
-29 4 -55 4 -58 1 -3 15 19 32 48 34 57 46 61 114 38 22 -8 42 -13 44 -11 2 2
-15 25 -37 51 l-40 47 26 41 c15 23 31 44 37 48 24 18 -7 16 -49 -2 -26 -11
-53 -20 -60 -20 -7 0 -27 20 -46 45 -19 25 -35 45 -37 45 -2 0 -2 -27 0 -61z"/>
<path d="M1790 2271 c0 -5 -16 -26 -35 -47 l-35 -37 -56 22 c-31 11 -58 21
-60 21 -3 0 11 -23 30 -52 38 -56 38 -62 -12 -115 -17 -17 -28 -33 -26 -36 2
-2 28 4 57 13 l52 18 23 -24 c12 -13 22 -26 22 -29 0 -3 8 -18 18 -33 l17 -26
5 64 5 65 58 15 c31 8 57 17 57 20 0 3 -25 14 -55 25 l-56 18 4 64 c2 35 0 63
-5 63 -4 0 -8 -4 -8 -9z"/>
<path d="M547 2025 l-49 -44 -54 29 c-30 15 -54 26 -54 24 0 -3 11 -27 25 -54
14 -27 25 -51 25 -54 0 -2 -21 -25 -47 -51 -47 -46 -48 -46 -18 -41 108 21
101 23 130 -40 14 -31 27 -55 29 -53 2 2 6 22 9 44 3 22 9 49 14 60 8 20 14
22 81 27 42 3 51 15 17 24 -14 3 -25 10 -25 14 0 4 -14 13 -31 19 -28 10 -30
14 -24 38 4 16 8 40 10 54 1 15 5 32 9 38 12 19 3 12 -47 -34z"/>
<path d="M2007 2033 c3 -16 7 -43 7 -62 1 -31 -3 -36 -54 -62 -30 -16 -50 -29
-45 -30 6 0 21 -2 35 -5 64 -10 90 -15 90 -17 0 -1 3 -27 6 -57 4 -30 8 -57
10 -59 2 -2 16 22 31 53 l27 56 41 -5 c22 -2 50 -7 63 -9 28 -6 22 5 -29 51
l-38 35 30 60 30 60 -57 -31 -58 -31 -25 22 c-14 13 -32 31 -39 41 -20 26 -33
21 -25 -10z"/>
<path d="M1140 1865 c-7 -8 -16 -15 -20 -15 -4 0 -37 -17 -74 -37 l-66 -37 0
-100 0 -101 84 -47 c82 -47 106 -56 106 -40 0 5 16 14 35 22 19 8 35 17 35 20
0 3 16 12 35 20 19 7 37 21 39 29 2 9 4 57 4 107 l-1 90 -70 40 c-39 21 -76
44 -83 51 -9 10 -15 9 -24 -2z"/>
<path d="M1485 1861 c-6 -5 -37 -23 -70 -41 -33 -18 -64 -36 -69 -41 -5 -5
-10 -50 -11 -100 -2 -107 -2 -106 104 -162 l70 -37 48 26 c26 15 65 38 85 50
l36 23 -1 98 -2 97 -80 48 c-84 50 -95 54 -110 39z"/>
<path d="M265 1709 c-23 -59 -42 -70 -98 -57 -22 5 -42 6 -45 3 -3 -2 15 -23
41 -45 l45 -40 -24 -51 c-14 -28 -23 -53 -21 -56 3 -2 27 9 53 26 l48 29 38
-29 c21 -17 40 -35 43 -40 16 -25 21 -4 9 38 -21 69 -19 75 37 106 28 16 49
30 47 32 -2 2 -28 6 -58 9 -30 3 -56 5 -57 6 -4 0 -24 82 -26 101 -2 31 -11
22 -32 -32z"/>
<path d="M2300 1755 c-1 -5 -3 -17 -5 -25 -2 -8 -6 -31 -10 -50 -3 -19 -7 -35
-8 -37 -3 -3 -76 -11 -106 -12 l-24 -1 26 -20 c14 -11 28 -20 31 -20 4 0 17
-7 30 -15 24 -16 24 -17 9 -72 -8 -30 -12 -57 -10 -59 3 -3 24 13 47 35 l43
40 41 -22 c23 -12 47 -28 54 -34 27 -26 23 -10 -19 80 -13 28 -12 30 36 73
l50 44 -55 -6 c-30 -4 -58 -8 -63 -11 -4 -2 -20 24 -36 59 -16 35 -30 59 -31
53z"/>
<path d="M918 1520 c-27 -17 -51 -30 -54 -30 -3 0 -19 -9 -34 -20 -28 -20 -28
-22 -28 -116 l1 -96 51 -32 c28 -17 60 -37 71 -44 47 -29 35 -32 150 32 l60
34 3 88 c4 111 0 126 -37 142 -17 7 -46 24 -65 37 -19 13 -37 21 -40 17 -3 -3
-6 0 -6 6 0 19 -22 14 -72 -18z"/>
<path d="M1300 1536 c-8 -8 -43 -28 -76 -45 l-62 -32 -1 -102 -2 -103 75 -42
c42 -24 78 -47 81 -52 3 -5 27 3 53 18 26 15 58 33 72 40 61 32 61 32 58 138
l-3 99 -70 41 c-86 51 -107 58 -125 40z"/>
<path d="M1602 1505 c-40 -24 -76 -46 -80 -49 -3 -4 -6 -49 -7 -102 l0 -95 50
-31 c114 -72 114 -72 167 -46 26 13 48 26 48 31 0 4 7 7 15 7 8 0 15 3 15 8 0
4 10 12 23 17 21 9 22 16 22 109 l0 100 -83 48 c-46 26 -87 48 -90 47 -4 -1
-40 -21 -80 -44z"/>
<path d="M129 1354 c-1 -10 -2 -39 -3 -64 l-1 -45 -58 -19 c-32 -10 -56 -20
-54 -23 2 -2 28 -12 58 -22 l54 -19 0 -61 c0 -34 2 -61 5 -61 3 0 19 21 35 45
17 25 37 45 45 45 17 0 79 -21 98 -33 21 -14 14 4 -24 55 l-35 50 35 46 c20
25 34 47 32 49 -2 3 -26 -3 -52 -12 -26 -9 -53 -14 -59 -11 -7 2 -26 26 -43
52 -23 34 -32 42 -33 28z"/>
<path d="M2425 1315 c-32 -48 -39 -51 -82 -34 -15 6 -39 13 -52 15 -22 5 -21
2 14 -45 39 -54 39 -54 -8 -113 -33 -44 -32 -44 41 -21 l54 17 19 -26 c11 -15
29 -37 40 -50 l20 -23 -3 62 -3 62 40 16 c23 8 46 15 52 15 7 0 14 4 18 9 3 5
-19 17 -49 25 -59 17 -66 29 -60 96 2 22 1 40 -4 40 -4 0 -20 -20 -37 -45z"/>
<path d="M705 1182 l-80 -48 0 -99 0 -98 80 -48 c44 -27 83 -48 87 -49 3 0 43
22 89 49 l82 48 1 98 1 97 -83 49 c-46 27 -87 49 -90 49 -4 0 -43 -22 -87 -48z"/>
<path d="M1063 1182 l-82 -47 0 -97 c-1 -110 -6 -102 112 -167 l58 -32 83 48
84 47 -1 102 c0 81 -3 103 -16 111 -28 18 -149 83 -153 83 -1 0 -40 -22 -85
-48z"/>
<path d="M1430 1189 c-99 -59 -96 -54 -94 -145 1 -43 2 -87 3 -96 1 -14 40
-40 143 -95 26 -14 32 -12 110 34 l83 49 0 89 c1 116 0 119 -41 135 -19 8 -34
17 -34 22 0 4 -6 8 -14 8 -7 0 -25 9 -39 20 -33 26 -41 25 -117 -21z"/>
<path d="M1830 1215 c-7 -8 -19 -15 -26 -15 -8 0 -14 -4 -14 -10 0 -5 -5 -10
-10 -10 -6 0 -27 -11 -48 -24 l-38 -24 2 -93 c1 -52 2 -97 3 -101 1 -6 121
-77 154 -90 12 -5 31 0 55 15 20 13 44 27 52 30 72 33 74 36 75 136 0 51 -4
99 -10 106 -14 16 -154 95 -170 95 -7 0 -18 -7 -25 -15z"/>
<path d="M480 535 c-69 -69 -129 -125 -134 -125 -5 0 -63 54 -129 120 -66 66
-122 120 -126 120 -3 0 -6 -130 -6 -290 l-1 -290 43 -1 c24 -1 55 -2 71 -3 30
-1 29 -5 31 154 l1 75 53 -58 c28 -31 56 -57 61 -57 5 0 33 25 62 55 29 30 56
55 59 55 4 0 6 -30 5 -67 -1 -38 -1 -89 -1 -114 l1 -46 46 -1 c25 -1 52 -6 59
-12 21 -17 32 10 30 78 l-2 62 39 -40 c92 -96 214 -118 329 -60 106 53 168
181 147 305 -3 17 2 20 35 18 20 -1 38 3 38 8 1 5 2 15 3 22 1 14 76 23 76 8
0 -5 -6 -16 -13 -23 -15 -16 -215 -322 -222 -340 -5 -11 46 -14 284 -13 159 0
291 3 294 5 2 3 15 32 28 64 24 55 28 60 57 59 18 -1 47 -2 65 -2 29 -1 36 -6
56 -49 42 -88 45 -90 90 -82 22 4 43 5 45 2 7 -7 146 -9 147 -2 0 3 2 45 4 95
3 107 3 105 13 105 7 0 6 -109 -1 -172 -2 -16 1 -28 7 -29 133 -13 132 -13
131 97 0 52 2 94 5 94 3 0 39 -43 79 -95 l74 -95 64 6 c68 6 104 11 109 17 2
1 -7 14 -19 28 -12 13 -51 58 -86 99 -36 41 -73 85 -84 97 l-20 22 44 53 c24
29 53 64 64 77 11 14 36 43 55 65 19 23 40 48 46 56 11 13 1 15 -81 17 l-94 2
-23 -32 c-12 -18 -25 -34 -28 -37 -4 -3 -26 -31 -49 -62 -24 -32 -46 -58 -50
-58 -3 0 -6 44 -6 97 l0 97 -62 1 c-51 1 -63 -2 -64 -14 -1 -9 -2 -53 -3 -98
0 -45 -5 -85 -9 -89 -8 -8 -9 13 -9 122 l1 70 -75 2 -74 2 -1 -32 c0 -18 -1
-108 -2 -200 -1 -93 -5 -168 -9 -168 -4 0 -8 4 -8 9 0 21 -203 422 -210 414
-9 -8 -26 -41 -105 -188 -26 -49 -48 -91 -49 -92 -2 -2 -42 -11 -58 -12 -5 -1
-7 -4 -7 -8 1 -5 1 -23 0 -41 l-1 -33 -64 5 c-61 4 -64 3 -70 -20 -5 -20 -13
-24 -41 -24 -19 0 -35 2 -35 4 0 3 49 83 108 178 60 95 114 182 119 193 11 20
8 20 -220 18 -128 -1 -237 -2 -243 -2 -6 -1 -9 -19 -8 -46 l3 -44 -47 33 c-57
40 -100 55 -168 57 -64 2 -150 -35 -196 -85 -18 -20 -35 -36 -38 -36 -3 0 -4
38 -2 85 2 47 2 85 0 85 -2 0 -59 -56 -128 -125z m424 -90 c17 -8 37 -25 45
-37 19 -31 31 -87 20 -94 -5 -3 -7 -9 -4 -14 3 -5 -9 -26 -27 -46 -27 -29 -43
-37 -78 -40 -55 -6 -86 9 -118 56 -19 28 -23 44 -19 78 10 90 97 137 181 97z"/>
</g>
</svg>
